<svg xmlns="http://www.w3.org/2000/svg"
  xmlns:xlink= "http://www.w3.org/1999/xlink" style="fill: none;" width="150" height="150">
  <g transform='translate(-65.4, 0) scale(0.15)'>
    <path id=' halfeye-left' transform='translate(1860, 0) scale(-1.0, 1)' style="stroke-width: 18px; stroke-linecap: round; stroke-linejoin: round; stroke: rgb(195, 195, 195); fill: none;" d="
  M930,360 
  Q1095,375 1215,495 
  Q1215,495 1215,495 
  Q1095,615 930,630 
  M930,360 
  L930,360 
  M930,630 
  M930,495 
  L930,495 
  L930,495 
  M930,360 
  A135,135 0 0,1 1065,495 
  L1065,495 
    A135,135 0 0,1 930,630">
      <animate id='stealth-open-left' begin='indefinite' dur="0.8s" attributeType="XML" attributeName="d" from="
    M990,495 
    Q1110,495 1215,495 
    Q1215,495 1215,495 
    Q1110,495 990,495 
    M990,495 
    L990,495 
    M990,495 
    M930,495 
    L930,495 
    L930,495 
    M990,495 
    A75,0 0 0,1 1065,495 
    L1065,495 
    A75,0 0 0,1 990,495
    " to="M930,360 
    Q1095,375 1215,495 
    Q1215,495 1215,495 
    Q1095,615 930,630 
    M930,360 
    L930,360 
    M930,630 
    M930,495 
    L930,495 
    L930,495 
    M930,360 
    A135,135 0 0,1 1065,495 
    L1065,495 
    A135,135 0 0,1 930,630" fill="freeze" />
      <animate id='stealth-close-left' begin='indefinite' dur="0.4s" attributeType="XML" attributeName="d" from="M930,360 
    Q1095,375 1215,495 
    Q1215,495 1215,495 
    Q1095,615 930,630 
    M930,360 
    L930,360 
    M930,630 
    M930,495 
    L930,495 
    L930,495 
    M930,360 
    A135,135 0 0,1 1065,495 
    L1065,495 
    A135,135 0 0,1 930,630" to="
    M990,495 
    Q1110,495 1215,495 
    Q1215,495 1215,495 
    Q1110,495 990,495 
    M990,495 
    L990,495 
    M990,495 
    M930,495 
    L930,495 
    L930,495 
    M990,495 
    A75,0 0 0,1 1065,495 
    L1065,495 
    A75,0 0 0,1 990,495
    " fill="freeze" />
    </path>
    <path id='halfeye-right' style="stroke-width: 18px; stroke-linecap: round; stroke-linejoin: round; stroke: rgb(195, 195, 195); fill: none;" d="
  M930,360 
  Q1095,375 1215,495 
  Q1215,495 1215,495 
  Q1095,615 930,630 
  M930,360 
  L930,360 
  M930,630 
  M930,495 
  L930,495 
  L930,495 
  M930,360 
  A135,135 0 0,1 1065,495 
  L1065,495 
    A135,135 0 0,1 930,630">
      <animate id='stealth-open-right' begin='indefinite' dur="0.8s" attributeType="XML" attributeName="d" from="
    M990,495 
    Q1110,495 1215,495 
    Q1215,495 1215,495 
    Q1110,495 990,495 
    M990,495 
    L990,495 
    M990,495 
    M930,495 
    L930,495 
    L930,495 
    M990,495 
    A75,0 0 0,1 1065,495 
    L1065,495 
    A75,0 0 0,1 990,495
    " to="M930,360 
    Q1095,375 1215,495 
    Q1215,495 1215,495 
    Q1095,615 930,630 
    M930,360 
    L930,360 
    M930,630 
    M930,495 
    L930,495 
    L930,495 
    M930,360 
    A135,135 0 0,1 1065,495 
    L1065,495 
    A135,135 0 0,1 930,630" fill="freeze" />
      <animate id='stealth-close-right' begin='indefinite' dur="0.4s" attributeType="XML" attributeName="d" from="M930,360 
    Q1095,375 1215,495 
    Q1215,495 1215,495 
    Q1095,615 930,630 
    M930,360 
    L930,360 
    M930,630 
    M930,495 
    L930,495 
    L930,495 
    M930,360 
    A135,135 0 0,1 1065,495 
    L1065,495 
    A135,135 0 0,1 930,630" to="
    M990,495 
    Q1110,495 1215,495 
    Q1215,495 1215,495 
    Q1110,495 990,495 
    M990,495 
    L990,495 
    M990,495 
    M930,495 
    L930,495 
    L930,495 
    M990,495 
    A75,0 0 0,1 1065,495 
    L1065,495 
    A75,0 0 0,1 990,495
    " fill="freeze" />
    </path>
  </g>
</svg>